<?xml version="1.0" standalone="no"?>
<!DOCTYPE svg PUBLIC "-//W3C//DTD SVG 20010904//EN"
 "http://www.w3.org/TR/2001/REC-SVG-20010904/DTD/svg10.dtd">
<svg version="1.0" xmlns="http://www.w3.org/2000/svg"
 width="1200.000000pt" height="1200.000000pt" viewBox="0 0 1200.000000 1200.000000"
 preserveAspectRatio="xMidYMid meet">

<g transform="translate(0.000000,1200.000000) scale(0.100000,-0.100000)"
fill="#000000" stroke="none">
<path d="M2645 9155 c-80 -28 -129 -119 -110 -205 9 -40 60 -99 102 -116 25
-11 122 -14 453 -14 l420 0 29 -27 c26 -25 36 -51 76 -213 46 -182 415 -1636
540 -2125 35 -137 112 -439 170 -670 59 -231 147 -577 196 -770 49 -192 106
-414 126 -493 39 -156 60 -198 113 -225 33 -16 155 -17 2220 -15 l2185 3 34
24 c40 28 70 91 71 144 0 42 -27 102 -58 130 -53 48 34 46 -2148 47 -2037 0
-2050 0 -2072 20 -12 11 -26 39 -32 63 -7 23 -20 72 -30 109 -10 36 -16 69
-12 72 3 3 888 6 1967 6 l1962 0 33 23 c18 12 42 33 52 47 18 24 89 404 273
1450 19 107 70 395 114 640 174 971 163 888 121 958 -12 19 -38 41 -63 52 -41
19 -100 20 -2659 20 -2483 0 -2617 1 -2622 18 -3 9 -37 143 -76 297 -175 689
-171 675 -207 711 -18 18 -50 38 -70 43 -24 7 -222 11 -548 11 -411 -1 -518
-4 -550 -15z m6396 -1444 c34 -35 35 -36 9 -171 -11 -58 -49 -269 -84 -470
-120 -678 -307 -1725 -312 -1751 -3 -15 -15 -36 -28 -48 l-22 -21 -1884 0
c-1036 0 -1888 4 -1892 8 -11 11 -34 96 -198 742 -77 305 -206 813 -286 1129
-138 546 -144 574 -128 592 17 19 73 19 2406 19 l2390 0 29 -29z"/>
<path d="M5218 4080 c-256 -46 -445 -221 -509 -468 -124 -487 355 -914 828
-737 244 92 403 323 403 586 0 282 -192 532 -463 605 -67 18 -199 25 -259 14z
m229 -356 c57 -27 101 -72 135 -137 19 -34 23 -58 23 -127 0 -69 -4 -93 -23
-127 -34 -66 -79 -110 -135 -136 -68 -32 -124 -40 -189 -26 -133 28 -225 130
-235 264 -6 75 8 129 50 191 84 124 237 164 374 98z"/>
<path d="M8375 4083 c-262 -41 -466 -222 -530 -468 -21 -77 -21 -232 0 -310
44 -172 169 -326 326 -402 109 -53 172 -68 289 -67 264 2 498 173 586 429 24
69 28 96 28 195 1 100 -3 125 -27 195 -67 196 -228 350 -427 409 -57 17 -193
28 -245 19z m149 -338 c221 -58 297 -327 139 -490 -137 -141 -369 -110 -470
62 -35 60 -43 168 -19 241 31 91 117 168 213 191 56 13 73 13 137 -4z"/>
</g>
</svg>
