<?xml version="1.0" standalone="no"?>
<!DOCTYPE svg PUBLIC "-//W3C//DTD SVG 20010904//EN"
 "http://www.w3.org/TR/2001/REC-SVG-20010904/DTD/svg10.dtd">
<svg version="1.0" xmlns="http://www.w3.org/2000/svg"
 width="512.000000pt" height="512.000000pt" viewBox="0 0 512.000000 512.000000"
 preserveAspectRatio="xMidYMid meet">

<g transform="translate(0.000000,512.000000) scale(0.100000,-0.100000)"
fill="#000000" stroke="none">
<path d="M1998 5110 c-42 -13 -84 -47 -110 -88 -21 -34 -23 -52 -28 -198 -5
-154 -6 -162 -33 -202 -36 -55 -96 -86 -167 -86 -74 0 -105 18 -220 130 -52
51 -108 98 -124 103 -40 16 -111 13 -154 -5 -39 -16 -740 -706 -789 -776 -28
-41 -39 -106 -29 -164 6 -29 29 -60 106 -139 117 -122 134 -151 134 -225 0
-71 -31 -131 -86 -167 -40 -27 -48 -28 -203 -33 -154 -5 -163 -6 -202 -32 -22
-15 -51 -44 -64 -65 l-24 -38 0 -566 0 -565 27 -41 c50 -76 81 -87 264 -93
157 -5 162 -6 202 -34 48 -33 92 -112 92 -165 -1 -61 -35 -117 -134 -219 -52
-54 -100 -110 -105 -126 -16 -40 -13 -111 5 -154 16 -39 706 -740 776 -789 41
-28 106 -39 164 -29 29 6 60 29 139 106 122 117 151 134 225 134 71 0 131 -31
167 -86 27 -40 28 -48 33 -202 5 -147 7 -164 29 -199 13 -21 42 -50 64 -65
l41 -27 566 0 566 0 41 27 c22 15 51 44 64 65 22 35 24 52 29 199 5 154 6 162
33 202 36 55 96 86 167 86 74 0 103 -17 225 -134 79 -77 110 -100 139 -106 58
-10 123 1 164 29 70 49 760 750 776 789 18 43 21 114 5 154 -5 16 -53 72 -105
126 -99 102 -133 158 -134 219 0 53 44 132 92 165 40 28 45 29 203 34 154 5
164 7 202 32 22 15 51 44 64 65 l24 38 0 565 0 565 -24 38 c-13 21 -42 50 -64
65 -39 26 -48 27 -202 32 -155 5 -163 6 -203 33 -55 36 -86 96 -86 167 0 74
18 105 130 220 51 52 98 108 103 124 16 40 13 111 -5 154 -16 39 -706 740
-776 789 -41 28 -106 39 -164 29 -29 -6 -60 -29 -139 -106 -122 -117 -151
-134 -225 -134 -71 0 -131 31 -167 86 -27 40 -28 48 -33 203 -5 154 -6 163
-32 202 -15 22 -44 51 -65 64 l-38 24 -550 2 c-302 1 -562 -2 -577 -7z m870
-472 c27 -185 157 -362 326 -443 110 -53 235 -74 345 -58 102 15 210 60 281
117 l55 44 211 -210 211 -210 -46 -62 c-59 -77 -99 -175 -114 -278 -16 -109 6
-235 58 -344 84 -175 271 -308 465 -330 l60 -7 0 -297 0 -297 -61 -7 c-246
-28 -462 -227 -514 -473 -37 -175 9 -369 120 -498 l34 -40 -211 -211 -210
-211 -62 46 c-193 147 -459 158 -673 29 -139 -84 -252 -254 -275 -415 l-12
-83 -297 0 -296 0 -7 61 c-34 295 -299 528 -602 529 -122 0 -278 -57 -369
-135 l-40 -34 -212 211 -211 211 40 50 c181 230 166 556 -35 773 -99 106 -230
174 -366 190 l-61 7 0 297 0 297 58 7 c138 16 249 70 353 175 132 132 195 310
172 490 -14 108 -53 207 -114 287 l-46 62 211 210 211 211 40 -34 c91 -78 247
-135 369 -135 303 1 568 234 602 529 l7 61 296 0 297 0 12 -82z"/>
<path d="M2440 3755 c-8 -2 -49 -9 -90 -15 -356 -58 -693 -308 -860 -640 -170
-337 -170 -725 1 -1080 112 -232 270 -396 495 -512 184 -96 361 -138 574 -138
470 0 861 234 1060 635 68 137 102 246 126 407 88 599 -320 1181 -926 1319
-78 18 -338 35 -380 24z m326 -425 c309 -79 523 -315 580 -642 54 -311 -83
-622 -354 -799 -134 -88 -258 -124 -432 -124 -174 0 -298 36 -432 124 -324
212 -449 605 -308 971 144 371 546 571 946 470z"/>
</g>
</svg>
