<?xml version="1.0" standalone="no"?>
<!DOCTYPE svg PUBLIC "-//W3C//DTD SVG 20010904//EN"
 "http://www.w3.org/TR/2001/REC-SVG-20010904/DTD/svg10.dtd">
<svg version="1.0" xmlns="http://www.w3.org/2000/svg"
 width="360.000000pt" height="360.000000pt" viewBox="0 0 360.000000 360.000000"
 preserveAspectRatio="xMidYMid meet">

<g transform="translate(0.000000,360.000000) scale(0.100000,-0.100000)"
fill="#000000" stroke="none">
<path d="M678 3293 c-9 -10 -24 -62 -33 -115 -10 -54 -18 -98 -19 -98 0 0 -45
16 -100 35 -122 44 -121 44 -201 -95 -68 -119 -69 -115 36 -203 38 -32 69 -61
69 -65 0 -5 -32 -34 -71 -67 -94 -78 -96 -85 -65 -145 57 -109 103 -175 123
-178 12 -2 60 11 108 27 48 17 90 31 95 31 4 0 16 -43 26 -96 23 -133 25 -134
168 -134 145 0 148 2 171 130 10 52 19 97 21 98 1 2 48 -11 104 -29 72 -24
105 -31 116 -24 29 19 136 213 129 234 -3 11 -38 48 -78 82 -40 34 -73 65 -75
69 -2 4 30 36 70 70 40 34 77 71 82 81 6 13 -6 44 -50 123 -33 58 -68 110 -79
116 -16 9 -40 4 -119 -25 -54 -20 -100 -34 -101 -33 -1 2 -10 46 -20 98 -9 52
-24 103 -32 113 -14 14 -35 17 -138 17 -104 0 -124 -3 -137 -17z m217 -193
c19 -97 22 -105 51 -122 32 -18 32 -18 129 17 53 19 101 33 105 30 5 -3 20
-25 33 -50 l25 -45 -74 -67 c-42 -36 -80 -75 -85 -85 -18 -34 2 -67 82 -134
l79 -67 -28 -48 c-15 -27 -31 -49 -36 -49 -6 0 -54 14 -108 32 l-98 32 -27
-20 c-24 -18 -31 -34 -47 -122 l-20 -102 -61 0 -61 0 -12 74 c-21 122 -29 142
-62 156 -25 10 -41 8 -122 -19 -51 -17 -98 -31 -103 -31 -6 0 -22 22 -37 49
l-27 49 80 67 c79 67 99 100 83 134 -5 10 -42 46 -81 81 -40 34 -73 67 -73 73
0 10 48 97 54 97 2 0 47 -16 101 -35 97 -35 97 -35 129 -17 29 17 33 25 52
122 12 58 22 106 23 108 0 2 27 2 59 0 l57 -3 20 -105z"/>
<path d="M750 2937 c-19 -6 -51 -28 -71 -48 -82 -82 -76 -207 14 -286 41 -36
87 -48 154 -40 51 5 83 26 127 80 59 73 41 202 -35 259 -62 46 -120 57 -189
35z m127 -119 c29 -32 37 -65 22 -99 -12 -30 -54 -59 -84 -59 -57 0 -106 70
-86 123 22 57 109 78 148 35z"/>
<path d="M2427 3288 c-8 -13 -24 -79 -36 -148 -13 -69 -24 -131 -26 -137 -3
-9 -46 2 -146 37 -79 28 -150 48 -159 45 -17 -5 -20 -10 -116 -178 -38 -66
-60 -115 -57 -126 3 -11 54 -61 114 -112 60 -51 109 -96 109 -100 0 -4 -47
-49 -105 -99 -116 -101 -127 -115 -115 -144 17 -45 149 -261 164 -271 12 -7
52 2 156 38 77 27 143 46 148 43 5 -3 20 -67 33 -142 13 -75 29 -144 36 -153
10 -14 36 -16 178 -16 144 0 168 2 179 17 6 9 22 76 35 150 13 73 28 137 32
142 4 5 69 -13 148 -40 111 -39 144 -47 158 -38 10 6 53 72 96 146 59 103 76
140 70 155 -4 11 -56 62 -115 112 -60 51 -108 96 -108 100 0 3 48 47 106 96
58 49 110 98 115 108 12 21 10 25 -85 189 -37 64 -75 120 -85 123 -9 3 -80
-17 -156 -44 -77 -28 -141 -48 -143 -46 -3 2 -17 67 -31 144 -15 77 -33 147
-40 155 -11 13 -40 16 -177 16 -159 0 -164 -1 -177 -22z m303 -227 c38 -204
45 -208 237 -140 63 22 121 43 128 46 13 5 30 -17 88 -118 l26 -46 -114 -97
c-109 -91 -115 -99 -115 -134 0 -20 4 -42 8 -47 4 -6 53 -50 110 -99 56 -48
102 -93 102 -99 0 -18 -85 -157 -96 -157 -7 0 -69 20 -140 46 -188 66 -196 62
-233 -138 l-27 -143 -96 -3 c-85 -2 -97 -1 -102 15 -2 10 -15 72 -27 138 -25
141 -29 148 -69 165 -27 11 -42 8 -163 -34 -72 -25 -136 -46 -142 -46 -10 0
-95 142 -95 159 0 5 50 51 110 102 108 92 110 95 110 136 0 40 -3 44 -107 134
-60 51 -109 96 -111 101 -4 9 75 155 88 163 4 3 64 -15 131 -40 141 -51 168
-54 202 -22 21 18 29 43 47 147 12 69 24 133 27 143 4 16 16 17 101 15 l96 -3
26 -144z"/>
<path d="M2559 2813 c-15 -2 -51 -18 -80 -36 -201 -121 -133 -426 101 -454 69
-8 132 12 187 60 58 52 82 105 83 180 0 98 -48 180 -128 221 -48 24 -117 36
-163 29z m122 -126 c99 -66 85 -210 -25 -252 -128 -49 -245 98 -170 212 40 62
133 81 195 40z"/>
<path d="M995 2167 c-119 -31 -265 -137 -311 -229 -49 -96 -48 -240 2 -378 13
-37 24 -76 24 -86 1 -35 47 -152 80 -201 l33 -48 -19 -85 -19 -85 -180 -46
c-99 -25 -190 -50 -201 -57 -36 -19 -83 -80 -89 -114 -3 -18 -14 -139 -24
-268 -17 -206 -18 -238 -5 -258 l15 -22 771 2 772 3 11 21 c16 32 -21 508 -43
553 -33 68 -75 89 -268 137 -98 24 -181 48 -185 52 -8 9 -39 135 -39 157 0 9
13 35 29 58 35 52 58 104 76 177 8 30 30 94 50 142 64 155 67 247 10 322 -13
17 -33 57 -45 88 -24 65 -77 119 -149 151 -57 25 -221 33 -296 14z m256 -110
c46 -19 81 -57 98 -103 7 -22 27 -61 43 -87 28 -43 30 -54 25 -107 -8 -87 -15
-90 -53 -19 -40 75 -78 117 -121 135 -59 26 -101 14 -193 -52 -28 -20 -42 -24
-70 -19 -104 18 -124 17 -146 -7 -12 -13 -29 -48 -39 -78 -25 -78 -32 -80 -40
-15 -20 157 34 252 185 330 86 45 233 55 311 22z m-8 -317 c30 -35 61 -113 77
-195 10 -54 9 -66 -10 -117 -44 -118 -131 -208 -216 -224 -78 -14 -178 52
-232 153 -52 100 -56 126 -23 192 16 31 34 76 42 101 7 25 15 48 18 52 4 4 29
4 56 0 65 -11 108 1 174 48 60 43 71 42 114 -10z m-272 -620 c27 -12 66 -20
99 -20 33 0 72 8 99 20 24 11 47 20 51 20 8 0 30 -76 30 -102 0 -22 -177 -151
-193 -141 -7 4 -48 35 -91 68 l-77 60 6 44 c8 52 14 71 25 71 4 0 27 -9 51
-20z m-38 -260 c65 -50 125 -90 137 -90 13 0 73 40 138 91 l116 92 175 -42
c218 -52 220 -54 232 -173 4 -45 8 -100 8 -120 l1 -38 -80 0 c-71 0 -80 2 -80
18 0 11 -9 27 -20 37 -16 15 -26 17 -47 9 -34 -12 -41 -35 -42 -157 l-1 -97
-402 2 -403 3 -5 120 c-5 119 -5 120 -32 129 -22 8 -32 6 -48 -9 -11 -10 -20
-26 -20 -37 0 -16 -9 -18 -81 -18 l-81 0 7 108 c7 122 17 154 50 172 23 12
313 87 346 89 10 1 69 -39 132 -89z m-373 -430 l0 -40 -90 0 c-97 0 -99 1 -84
58 6 21 12 22 90 22 l84 0 0 -40z m1193 8 c2 -18 3 -36 0 -40 -2 -5 -42 -8
-89 -8 l-84 0 0 40 0 40 84 0 84 0 5 -32z"/>
<path d="M1037 672 c-24 -26 -23 -113 1 -135 48 -43 98 1 90 78 -3 25 -11 52
-18 60 -17 20 -53 19 -73 -3z"/>
<path d="M1726 2154 c-9 -8 -16 -24 -16 -35 0 -10 47 -100 105 -199 l105 -181
0 -489 c0 -431 2 -490 16 -504 14 -14 90 -16 689 -16 l675 0 16 25 c15 23 15
27 0 50 -15 23 -23 25 -91 25 l-75 0 0 131 c0 72 -5 139 -10 150 -10 17 -22
19 -135 19 l-125 0 0 99 0 98 45 5 c75 9 75 9 75 200 0 98 -4 178 -10 189 -10
18 -25 19 -335 19 -391 0 -355 17 -355 -172 l0 -128 -42 0 c-72 0 -72 -2 -78
-162 l-5 -143 -25 -3 c-47 -7 -50 -16 -50 -164 l0 -139 -35 3 -35 3 -3 465 -2
465 -113 195 c-63 107 -119 198 -125 202 -19 12 -45 9 -61 -8z m1174 -614 l0
-100 -245 0 -245 0 0 100 0 100 245 0 245 0 0 -100z m-130 -311 l0 -99 -242 2
-243 3 -3 97 -3 98 238 2 c131 2 241 2 246 0 4 -2 7 -48 7 -103z m270 -299 l0
-100 -420 0 -420 0 0 100 0 100 420 0 420 0 0 -100z"/>
<path d="M2237 655 c-72 -25 -127 -101 -127 -175 0 -70 59 -155 123 -179 143
-54 291 85 247 232 -16 53 -74 112 -125 126 -51 14 -71 13 -118 -4z m121 -115
c32 -30 37 -64 15 -102 -46 -79 -158 -47 -155 45 2 67 90 103 140 57z"/>
<path d="M2875 651 c-104 -48 -143 -156 -94 -259 41 -84 143 -122 234 -88 128
49 161 210 64 307 -58 58 -133 73 -204 40z m134 -117 c57 -72 -15 -171 -96
-132 -83 40 -56 158 36 158 31 0 44 -6 60 -26z"/>
</g>
</svg>
