<?xml version="1.0" standalone="no"?>
<!DOCTYPE svg PUBLIC "-//W3C//DTD SVG 20010904//EN"
 "http://www.w3.org/TR/2001/REC-SVG-20010904/DTD/svg10.dtd">
<svg version="1.0" xmlns="http://www.w3.org/2000/svg"
 width="1200.000000pt" height="1200.000000pt" viewBox="0 0 1200.000000 1200.000000"
 preserveAspectRatio="xMidYMid meet">

<g transform="translate(0.000000,1200.000000) scale(0.100000,-0.100000)"
fill="#000000" stroke="none">
<path d="M3950 9080 l0 -291 113 3 112 3 3 173 2 172 1504 0 1503 0 362 -362
361 -362 0 -1577 0 -1577 87 -12 c48 -7 100 -16 115 -21 l28 -8 0 1647 0 1647
-428 428 -427 427 -1668 0 -1667 0 0 -290z"/>
<path d="M3190 5960 l0 -2650 1510 0 c1491 0 1510 0 1510 20 0 10 -4 41 -9 67
-6 26 -13 69 -16 96 l-6 47 -1380 0 -1379 0 0 2420 0 2420 1508 0 1507 0 363
-363 362 -362 0 -1268 0 -1267 38 16 c20 9 71 29 112 44 l75 28 3 1273 2 1274
-427 427 -428 428 -1672 0 -1673 0 0 -2650z"/>
<path d="M4030 7831 c-72 -22 -128 -71 -154 -133 -13 -31 -16 -89 -16 -343 0
-284 1 -309 20 -344 24 -49 93 -108 139 -121 23 -6 488 -10 1276 -10 l1240 0
51 24 c57 26 109 84 125 136 6 22 9 150 7 342 l-3 306 -30 44 c-35 49 -82 83
-134 98 -43 12 -2482 13 -2521 1z m2460 -471 l0 -250 -1205 0 -1205 0 0 243
c0 134 3 247 7 250 3 4 546 7 1205 7 l1198 0 0 -250z"/>
<path d="M3921 6367 c-37 -19 -63 -60 -63 -102 0 -42 26 -83 63 -102 19 -10
321 -13 1367 -13 1455 0 1378 -3 1416 52 27 38 21 103 -13 140 l-29 33 -1359
2 c-1065 2 -1363 0 -1382 -10z"/>
<path d="M3894 5616 c-28 -28 -34 -41 -34 -78 0 -24 7 -54 16 -66 38 -55 -39
-52 1414 -52 1453 0 1376 -3 1414 52 27 38 21 103 -13 140 l-29 33 -1367 3
-1367 2 -34 -34z"/>
<path d="M7550 5063 c-111 -19 -296 -81 -401 -133 -198 -100 -399 -273 -527
-455 -112 -159 -198 -362 -239 -562 -27 -134 -24 -414 5 -551 61 -282 191
-522 391 -723 170 -170 344 -277 571 -353 158 -53 269 -70 450 -69 120 0 179
5 260 22 294 62 545 195 745 396 212 214 333 439 398 744 29 140 29 406 -1
546 -42 196 -103 347 -198 493 -227 349 -571 576 -983 647 -107 19 -358 18
-471 -2z m370 -217 c170 -12 384 -91 556 -206 247 -166 435 -448 500 -750 27
-128 26 -363 -4 -496 -48 -217 -152 -411 -304 -570 -243 -253 -533 -378 -878
-377 -811 1 -1388 790 -1144 1565 60 189 155 341 309 493 165 163 327 256 542
311 94 24 255 43 318 37 17 -1 64 -4 105 -7z"/>
<path d="M8545 4285 c-16 -8 -253 -238 -524 -510 l-495 -495 -241 240 -242
240 -47 0 c-41 0 -53 -5 -82 -34 -27 -27 -34 -42 -34 -73 0 -21 8 -50 18 -65
24 -36 495 -510 551 -553 48 -38 85 -44 129 -21 40 22 1119 1107 1127 1134 27
92 -76 180 -160 137z"/>
<path d="M3900 4893 c-57 -52 -56 -133 3 -177 l28 -21 1207 -3 c857 -2 1218 0
1245 8 46 13 77 59 77 113 0 31 -7 46 -34 73 l-34 34 -1231 0 -1231 0 -30 -27z"/>
<path d="M3908 4173 c-14 -9 -31 -27 -37 -40 -16 -35 -13 -95 5 -122 37 -52 8
-51 1063 -51 670 0 989 3 1008 11 90 34 109 141 35 199 -24 20 -45 20 -1036
20 -924 -1 -1013 -2 -1038 -17z"/>
</g>
</svg>
