<?xml version="1.0" standalone="no"?>
<!DOCTYPE svg PUBLIC "-//W3C//DTD SVG 20010904//EN"
 "http://www.w3.org/TR/2001/REC-SVG-20010904/DTD/svg10.dtd">
<svg version="1.0" xmlns="http://www.w3.org/2000/svg"
 width="1200.000000pt" height="1200.000000pt" viewBox="0 0 1200.000000 1200.000000"
 preserveAspectRatio="xMidYMid meet">

<g transform="translate(0.000000,1200.000000) scale(0.100000,-0.100000)"
fill="#000000" stroke="none">
<path d="M3879 10677 c-19 -12 -42 -38 -51 -57 -17 -33 -18 -118 -18 -1357 l0
-1323 -1295 0 c-1405 0 -1332 3 -1385 -55 l-25 -27 -3 -2747 -2 -2748 -65 -6
c-36 -4 -79 -14 -95 -24 -59 -35 -60 -40 -60 -497 0 -451 1 -456 55 -506 l27
-25 5038 0 5038 0 27 25 c54 50 55 55 55 506 0 457 -1 462 -60 497 -16 10 -59
20 -95 24 l-65 6 -2 2748 -3 2747 -25 27 c-53 58 20 55 -1385 55 l-1295 0 0
1323 c0 1239 -1 1324 -18 1357 -9 19 -32 45 -51 57 l-34 23 -2087 0 -2087 0
-34 -23z m4036 -4282 l0 -4030 -187 -3 -188 -2 0 1290 c0 1431 4 1347 -65
1390 -32 20 -45 20 -1475 20 -1430 0 -1443 0 -1475 -20 -69 -43 -65 41 -65
-1390 l0 -1290 -187 2 -188 3 -3 4020 c-1 2211 0 4026 3 4033 3 10 392 12
1917 10 l1913 -3 0 -4030z m-4105 980 l0 -295 -1220 0 -1220 0 0 288 c0 159 3
292 7 295 3 4 552 7 1220 7 l1213 0 0 -295z m6818 -2 l2 -293 -1220 0 -1220 0
0 295 0 295 1218 -2 1217 -3 3 -292z m-6818 -913 l0 -350 -1217 2 -1218 3 -3
348 -2 347 1220 0 1220 0 0 -350z m6818 3 l-3 -348 -1217 -3 -1218 -2 0 350 0
350 1220 0 1220 0 -2 -347z m-6818 -968 l0 -345 -1220 0 -1220 0 0 345 0 345
1220 0 1220 0 0 -345z m6820 0 l0 -345 -1220 0 -1220 0 0 345 0 345 1220 0
1220 0 0 -345z m-6820 -965 l0 -350 -1220 0 -1220 0 0 343 c0 189 3 347 7 350
3 4 552 7 1220 7 l1213 0 0 -350z m6818 -2 l2 -348 -1220 0 -1220 0 0 350 0
350 1218 -2 1217 -3 3 -347z m-4768 -953 l0 -1215 -560 0 -560 0 -1 1148 c-1
631 -3 1177 -5 1215 l-3 67 565 0 564 0 0 -1215z m1401 1188 c2 -16 3 -562 1
-1215 l-2 -1188 -560 0 -560 0 0 1215 0 1215 559 0 559 0 3 -27z m-3451 -1198
l0 -345 -272 -2 c-150 -1 -392 -1 -538 0 -146 0 -572 1 -947 1 l-683 1 0 345
0 345 1220 0 1220 0 0 -345z m6820 0 l0 -345 -677 -2 c-373 -1 -797 -1 -943 0
-146 0 -390 1 -542 1 l-278 1 0 345 0 345 1220 0 1220 0 0 -345z m-6820 -915
l0 -290 -1220 0 -1220 0 0 290 0 290 1220 0 1220 0 0 -290z m6820 0 l0 -290
-1220 0 -1220 0 0 290 0 290 1220 0 1220 0 0 -290z m215 -820 l0 -255 -4845 0
-4845 0 -3 245 c-1 134 0 250 3 257 3 11 940 13 4847 11 l4843 -3 0 -255z"/>
<path d="M4541 9982 c-19 -9 -44 -30 -55 -45 -21 -28 -21 -40 -24 -595 -3
-632 -3 -633 62 -673 30 -18 58 -19 614 -19 635 0 618 -1 658 57 18 27 19 55
19 615 0 577 0 587 -21 615 -47 65 -31 63 -654 63 -518 0 -568 -1 -599 -18z
m1004 -657 l0 -400 -402 -3 -403 -2 0 405 0 405 403 -2 402 -3 0 -400z"/>
<path d="M6261 9982 c-19 -9 -44 -30 -55 -45 -21 -28 -21 -38 -21 -615 0 -560
1 -588 19 -615 40 -58 23 -57 658 -57 556 0 584 1 614 19 65 40 65 41 62 673
-3 555 -3 567 -24 595 -47 65 -31 63 -654 63 -518 0 -568 -1 -599 -18z m999
-657 l0 -405 -402 2 -403 3 -3 390 c-1 214 0 396 3 402 3 10 93 13 405 13
l400 0 0 -405z"/>
<path d="M4527 8402 c-15 -9 -37 -36 -48 -58 -19 -40 -20 -59 -17 -611 3 -632
0 -600 71 -643 31 -19 55 -20 608 -20 l576 0 34 23 c71 47 69 28 69 651 0 537
-1 561 -20 601 -38 79 -5 75 -662 75 -534 -1 -585 -2 -611 -18z m1018 -657 l0
-400 -402 -3 -403 -2 0 405 0 405 403 -2 402 -3 0 -400z"/>
<path d="M6247 8402 c-15 -9 -36 -35 -47 -58 -19 -39 -20 -64 -20 -600 0 -623
-2 -604 69 -651 l34 -23 576 0 c553 0 577 1 608 20 71 43 68 11 71 643 3 553
2 571 -17 611 -39 80 -6 76 -663 76 -534 -1 -585 -2 -611 -18z m1013 -647 c0
-217 0 -398 0 -402 0 -5 -181 -8 -402 -8 l-403 0 -3 390 c-1 214 0 396 3 402
3 10 93 13 405 13 l400 0 0 -395z"/>
<path d="M4553 6839 c-18 -5 -44 -25 -60 -46 l-28 -36 0 -586 c0 -550 1 -588
18 -613 10 -15 30 -35 45 -45 25 -17 63 -18 612 -18 549 0 587 1 612 18 15 10
35 30 45 45 17 25 18 63 18 614 0 577 0 587 -21 615 -47 65 -31 63 -649 62
-312 0 -574 -5 -592 -10z m981 -265 c14 -5 16 -51 16 -405 l0 -399 -405 0
-405 0 0 398 c0 219 3 402 7 405 8 9 766 9 787 1z"/>
<path d="M6261 6832 c-19 -9 -44 -30 -55 -45 -21 -28 -21 -38 -21 -615 0 -551
1 -589 18 -614 10 -15 30 -35 45 -45 25 -17 63 -18 612 -18 549 0 587 1 612
18 15 10 35 30 45 45 17 25 18 63 18 613 l0 586 -28 36 c-17 23 -41 40 -65 47
-23 6 -240 10 -592 10 -509 0 -558 -1 -589 -18z m997 -659 l2 -403 -405 0
-405 0 0 399 c0 310 3 400 13 404 6 3 188 5 402 4 l390 -2 3 -402z"/>
</g>
</svg>
