<?xml version="1.0" standalone="no"?>
<!DOCTYPE svg PUBLIC "-//W3C//DTD SVG 20010904//EN"
 "http://www.w3.org/TR/2001/REC-SVG-20010904/DTD/svg10.dtd">
<svg version="1.0" xmlns="http://www.w3.org/2000/svg"
 width="500.000000pt" height="500.000000pt" viewBox="0 0 500.000000 500.000000"
 preserveAspectRatio="xMidYMid meet">

<g transform="translate(0.000000,500.000000) scale(0.100000,-0.100000)"
fill="#000000" stroke="none">
<path d="M1600 3000 l0 -440 435 0 435 0 0 440 0 440 -435 0 -435 0 0 -440z
m575 -2 c49 -112 90 -206 92 -210 2 -5 -13 -8 -34 -8 -37 0 -40 2 -60 50 l-21
50 -106 0 -105 0 -22 -50 c-20 -46 -24 -50 -55 -50 -19 0 -34 3 -34 6 0 5 72
171 154 357 25 55 27 57 64 57 l39 0 88 -202z"/>
<path d="M2011 3045 c-18 -42 -35 -83 -38 -91 -4 -11 9 -14 71 -14 42 0 76 4
76 8 0 10 -64 160 -72 168 -3 3 -20 -29 -37 -71z"/>
<path d="M3460 2950 l0 -440 435 0 435 0 0 440 0 440 -435 0 -435 0 0 -440z
m543 179 c46 -24 88 -74 102 -124 58 -193 -155 -347 -332 -239 -57 34 -103
114 -103 176 0 72 48 151 113 185 61 31 161 32 220 2z"/>
<path d="M3817 3068 c-103 -60 -94 -209 16 -258 23 -11 51 -20 62 -20 38 0
104 38 125 72 30 50 28 128 -6 168 -53 63 -128 77 -197 38z"/>
<path d="M680 2785 l0 -435 435 0 435 0 0 435 0 435 -435 0 -435 0 0 -435z
m364 48 l68 -138 69 138 69 137 45 0 45 0 -2 -207 -3 -208 -32 -3 -33 -3 -1
158 -1 158 -64 -132 c-57 -118 -66 -133 -89 -133 -22 0 -33 15 -89 128 l-65
127 0 -152 -1 -153 -35 0 -35 0 0 210 0 210 43 0 42 0 69 -137z"/>
<path d="M2530 2615 l0 -435 440 0 440 0 0 435 0 435 -440 0 -440 0 0 -435z
m555 184 c17 -5 41 -19 54 -30 23 -19 23 -20 5 -42 -10 -12 -19 -23 -20 -25
-1 -2 -19 8 -39 23 -123 83 -276 -44 -217 -179 37 -82 130 -110 217 -66 l39
20 21 -21 c20 -20 20 -20 0 -36 -73 -56 -160 -67 -240 -29 -59 27 -77 46 -104
106 -36 78 -22 162 37 223 64 68 148 87 247 56z"/>
<path d="M1461 1871 c-14 -14 -21 -34 -21 -57 0 -32 8 -44 65 -99 70 -66 79
-91 45 -125 -38 -38 -100 -19 -113 35 -3 12 -5 4 -6 -17 -1 -35 1 -38 38 -48
45 -12 96 2 111 30 6 10 10 34 10 52 0 28 -11 44 -65 98 -36 35 -65 72 -65 82
0 24 35 58 60 58 11 0 29 -9 41 -21 l21 -21 -4 24 c-3 20 -9 23 -50 26 -37 2
-51 -1 -67 -17z"/>
<path d="M1737 1875 c12 -8 42 -49 67 -90 42 -69 46 -81 46 -140 0 -50 -4 -66
-17 -74 -14 -8 -7 -10 32 -10 39 0 46 2 33 10 -14 8 -18 23 -18 71 0 55 5 68
50 142 27 46 60 88 72 94 20 9 17 11 -26 11 -40 1 -46 -1 -37 -13 9 -10 3 -28
-26 -80 -20 -36 -39 -66 -42 -66 -8 0 -71 123 -71 137 0 6 6 14 13 16 6 3 -13
6 -43 6 -51 1 -53 0 -33 -14z"/>
<path d="M2172 1867 c-40 -42 -30 -77 43 -148 48 -46 65 -70 65 -89 0 -37 -31
-62 -72 -58 -26 2 -36 10 -50 38 l-18 35 0 -31 c0 -37 13 -50 60 -58 43 -8 80
10 98 48 21 42 8 71 -63 139 -36 35 -65 71 -65 80 0 23 36 57 60 57 11 0 29
-9 40 -20 l20 -20 0 25 c0 23 -3 25 -48 25 -38 0 -53 -5 -70 -23z"/>
<path d="M2430 1868 c0 -17 3 -19 12 -10 7 7 34 12 60 12 l48 0 0 -149 c0
-110 -3 -151 -12 -154 -7 -3 6 -6 30 -6 40 -1 42 0 28 15 -13 13 -16 42 -16
156 l0 140 60 -4 c43 -2 60 1 60 10 0 9 -34 12 -135 12 -132 0 -135 0 -135
-22z"/>
<path d="M2853 1879 c15 -9 17 -27 17 -154 0 -127 -2 -145 -17 -154 -13 -8 8
-10 79 -11 l96 0 11 31 c15 43 14 44 -12 13 -18 -21 -35 -28 -75 -32 l-52 -5
0 73 0 72 55 -4 c53 -3 55 -2 55 22 0 19 -3 21 -12 12 -7 -7 -31 -12 -55 -12
l-43 0 0 70 0 70 53 0 c29 0 58 -5 65 -12 9 -9 12 -7 12 10 0 21 -4 22 -97 22
-72 -1 -93 -3 -80 -11z"/>
<path d="M3246 1860 c-3 -19 -12 -89 -20 -154 -11 -93 -18 -123 -32 -133 -16
-12 -14 -13 17 -13 l34 0 3 112 c2 61 6 116 9 121 3 5 30 -46 61 -112 30 -67
57 -119 60 -116 4 4 64 133 105 225 9 21 12 8 22 -90 8 -74 8 -119 2 -127 -7
-10 1 -13 34 -13 36 0 40 2 26 13 -12 9 -21 51 -35 167 l-19 155 -39 -85 c-21
-47 -51 -110 -65 -140 l-27 -55 -42 90 c-23 50 -52 113 -65 140 l-22 50 -7
-35z"/>
</g>
</svg>
