<?xml version="1.0" standalone="no"?>
<!DOCTYPE svg PUBLIC "-//W3C//DTD SVG 20010904//EN"
 "http://www.w3.org/TR/2001/REC-SVG-20010904/DTD/svg10.dtd">
<svg version="1.0" xmlns="http://www.w3.org/2000/svg"
 width="512.000000pt" height="512.000000pt" viewBox="0 0 512.000000 512.000000"
 preserveAspectRatio="xMidYMid meet">

<g transform="translate(0.000000,512.000000) scale(0.100000,-0.100000)"
fill="#000000" stroke="none">
<path d="M2375 5105 c-184 -28 -362 -99 -521 -205 -101 -68 -256 -223 -324
-324 -156 -233 -232 -503 -217 -770 6 -97 23 -207 42 -267 6 -18 -9 -19 -415
-19 -402 0 -423 -1 -460 -20 -22 -11 -47 -34 -56 -53 -10 -17 -109 -306 -221
-642 l-203 -610 0 -1038 c0 -1020 0 -1038 20 -1077 13 -26 34 -47 60 -60 39
-20 53 -20 2480 -20 2427 0 2441 0 2480 20 26 13 47 34 60 60 20 39 20 57 20
1077 l0 1038 -203 610 c-112 336 -211 625 -221 642 -9 19 -34 42 -56 53 -37
19 -58 20 -460 20 -406 0 -421 1 -415 19 19 60 36 170 42 267 23 409 -169 818
-502 1066 -95 71 -291 169 -395 198 -175 48 -371 61 -535 35z m418 -314 c336
-88 596 -349 689 -691 33 -122 33 -338 0 -460 -93 -344 -348 -599 -692 -692
-121 -32 -337 -32 -460 1 -341 91 -599 347 -692 688 -31 112 -31 354 0 466
100 364 387 631 757 703 98 19 297 12 398 -15z m-1258 -1633 c22 -34 78 -102
124 -150 l83 -88 -256 0 c-238 0 -260 -2 -296 -20 -45 -23 -80 -80 -80 -130 0
-50 35 -107 80 -130 39 -20 56 -20 1370 -20 1314 0 1331 0 1370 20 45 23 80
80 80 130 0 50 -35 107 -80 130 -36 18 -58 20 -296 20 l-256 0 83 88 c47 48
102 116 124 150 l40 62 419 -3 419 -2 144 -430 c79 -236 146 -438 149 -447 5
-17 -104 -18 -2195 -18 -1211 0 -2201 1 -2201 3 0 2 287 863 295 885 3 9 97
12 422 12 l418 -1 40 -61z m3285 -1998 l0 -860 -2260 0 -2260 0 0 860 0 860
2260 0 2260 0 0 -860z"/>
<path d="M2490 4643 c-27 -24 -33 -38 -38 -81 -4 -51 -5 -52 -57 -76 -113 -51
-186 -163 -193 -293 -8 -135 45 -224 176 -298 l72 -40 0 -212 0 -212 -37 13
c-21 8 -61 26 -90 41 -46 24 -55 26 -87 15 -46 -15 -66 -44 -66 -95 0 -32 6
-47 28 -67 52 -48 125 -81 223 -102 24 -5 27 -11 31 -58 4 -42 11 -57 37 -80
37 -33 73 -36 118 -8 34 20 41 37 45 109 3 43 4 44 56 63 75 28 163 113 204
196 31 62 33 73 33 172 0 96 -2 110 -28 159 -41 76 -103 133 -192 171 l-75 34
0 158 c0 87 3 158 8 158 4 0 27 -14 51 -30 55 -38 91 -38 132 -2 44 40 46 98
4 142 -38 40 -98 75 -152 90 -42 11 -43 11 -43 55 0 59 -30 94 -86 102 -36 4
-46 1 -74 -24z m-42 -511 l-3 -47 -22 23 c-31 30 -31 95 0 142 l22 35 3 -53
c2 -29 2 -74 0 -100z m266 -402 c32 -36 36 -46 36 -96 0 -31 -7 -69 -16 -87
-18 -35 -63 -87 -76 -87 -4 0 -8 70 -8 155 0 176 3 182 64 115z"/>
<path d="M678 1699 c-23 -12 -46 -35 -58 -59 -19 -38 -20 -58 -20 -480 0 -422
1 -442 20 -480 13 -26 34 -47 60 -60 39 -20 55 -20 1880 -20 1825 0 1841 0
1880 20 26 13 47 34 60 60 19 38 20 58 20 480 0 422 -1 442 -20 480 -13 26
-34 47 -60 60 -39 20 -54 20 -1882 20 -1815 -1 -1844 -1 -1880 -21z m3542
-539 l0 -260 -1660 0 -1660 0 0 260 0 260 1660 0 1660 0 0 -260z"/>
</g>
</svg>
