<?xml version="1.0" standalone="no"?>
<!DOCTYPE svg PUBLIC "-//W3C//DTD SVG 20010904//EN"
 "http://www.w3.org/TR/2001/REC-SVG-20010904/DTD/svg10.dtd">
<svg version="1.0" xmlns="http://www.w3.org/2000/svg"
 width="626.000000pt" height="626.000000pt" viewBox="0 0 626.000000 626.000000"
 preserveAspectRatio="xMidYMid meet">

<g transform="translate(0.000000,626.000000) scale(0.100000,-0.100000)"
fill="#000000" stroke="none">
<path d="M3040 5739 c-626 -77 -1124 -549 -1236 -1170 -23 -130 -23 -364 1
-489 83 -443 370 -826 769 -1027 99 -50 282 -108 405 -128 151 -26 406 -17
548 19 279 70 485 186 683 385 273 274 413 616 411 1006 0 233 -42 409 -146
620 -35 72 -93 168 -128 215 -81 106 -238 259 -339 328 -156 107 -358 190
-548 226 -104 20 -320 28 -420 15z m412 -170 c482 -96 863 -461 985 -944 34
-137 43 -360 19 -499 -48 -280 -170 -510 -375 -709 -241 -234 -544 -357 -876
-357 -577 0 -1079 390 -1231 955 -35 134 -45 380 -20 525 123 703 799 1168
1498 1029z"/>
<path d="M3048 5335 c-736 -120 -1101 -946 -694 -1570 100 -153 244 -278 417
-360 158 -74 235 -90 434 -90 145 1 183 4 255 24 299 80 538 282 671 565 70
151 83 215 83 426 0 173 -2 191 -27 275 -113 370 -407 644 -772 720 -112 23
-263 27 -367 10z m239 -145 c383 -40 692 -322 769 -699 13 -65 15 -113 11
-205 -7 -143 -23 -209 -82 -333 -155 -319 -476 -510 -828 -490 -124 7 -206 27
-316 78 -251 116 -431 344 -487 616 -26 125 -15 311 24 433 108 328 396 563
737 600 39 4 72 8 75 8 3 1 46 -3 97 -8z"/>
<path d="M3157 5010 c-20 -16 -27 -31 -29 -66 -3 -45 -3 -45 -62 -69 -110 -45
-166 -122 -174 -241 -8 -133 41 -219 169 -295 l69 -41 0 -210 0 -211 -42 6
c-24 3 -80 25 -126 48 -94 48 -102 46 -102 -29 0 -36 5 -49 30 -72 31 -29 123
-64 198 -76 41 -6 42 -8 42 -44 0 -53 27 -84 75 -84 49 0 75 30 75 89 l0 42
59 22 c77 28 151 94 182 163 33 73 34 204 2 263 -30 56 -96 116 -175 160 l-68
37 0 190 0 189 23 -6 c12 -4 54 -22 94 -40 39 -18 74 -31 77 -27 3 3 6 32 6
64 0 55 -2 59 -32 78 -18 11 -63 27 -100 37 l-68 17 0 39 c0 73 -68 110 -123
67z m-27 -390 c0 -77 -4 -140 -8 -140 -11 0 -57 50 -71 77 -16 31 -14 109 4
143 14 27 51 60 67 60 5 0 8 -63 8 -140z m215 -444 c61 -63 69 -137 24 -212
-19 -32 -59 -64 -79 -64 -6 0 -10 56 -10 160 0 116 3 160 12 160 6 0 30 -20
53 -44z"/>
<path d="M489 2956 c-85 -30 -151 -104 -169 -190 -7 -35 -10 -347 -8 -991 l3
-940 31 -55 c34 -61 100 -113 166 -131 25 -6 129 -9 276 -7 270 3 284 7 359
92 51 58 63 101 63 225 0 73 3 101 12 101 11 0 514 -198 1163 -457 296 -118
355 -119 685 -12 2028 659 2649 865 2686 890 138 94 215 274 185 435 -26 143
-111 258 -235 319 -95 48 -189 62 -271 42 -33 -8 -294 -91 -580 -184 -286 -94
-530 -173 -542 -177 -22 -7 -22 -6 -16 57 19 208 -126 392 -338 427 -42 6
-206 8 -479 4 -296 -5 -436 -3 -489 5 -84 13 -161 48 -336 150 -188 110 -308
153 -485 172 -166 17 -363 -5 -573 -66 -136 -40 -267 -65 -337 -65 l-48 0 -4
98 c-5 110 -17 142 -79 202 -66 64 -99 70 -368 70 -167 -1 -247 -5 -272 -14z
m511 -151 c64 -33 60 33 60 -993 0 -1035 4 -979 -65 -1008 -26 -10 -85 -14
-238 -14 -196 0 -205 1 -238 23 -19 13 -39 38 -46 57 -9 26 -12 266 -12 938
-1 980 -3 945 54 990 26 21 37 22 242 22 170 0 220 -3 243 -15z m1250 -240
c104 -22 204 -65 353 -152 73 -42 161 -89 196 -106 120 -54 152 -57 679 -57
l483 0 48 -25 c99 -49 153 -158 133 -261 -13 -61 -49 -120 -93 -153 -69 -51
-66 -51 -736 -51 l-624 0 -24 -25 c-31 -30 -32 -64 -4 -99 l21 -27 661 3 662
3 50 23 c27 13 64 34 80 47 19 14 274 102 680 234 708 230 714 231 805 190 89
-40 151 -121 170 -221 19 -97 -32 -221 -113 -275 -17 -12 -162 -65 -322 -117
-159 -52 -587 -191 -950 -309 -363 -119 -869 -284 -1125 -367 -454 -149 -467
-152 -550 -152 -52 0 -102 7 -130 16 -109 40 -1366 540 -1378 549 -9 8 -12
137 -10 611 l3 601 85 7 c116 9 192 23 334 65 67 19 153 41 191 48 100 19 337
18 425 0z"/>
<path d="M733 1770 c-39 -16 -43 -39 -43 -277 0 -248 3 -264 55 -277 29 -7 79
15 89 39 8 22 8 458 0 480 -6 15 -54 46 -71 44 -4 0 -18 -4 -30 -9z"/>
<path d="M717 1130 c-25 -20 -27 -27 -27 -89 0 -74 15 -105 55 -115 27 -7 62
7 82 33 20 25 16 135 -4 160 -27 32 -73 37 -106 11z"/>
</g>
</svg>
